<?xml version="1.0" encoding="UTF-8" standalone="no"?>
<!-- Generator: Adobe Illustrator 16.0.0, SVG Export Plug-In . SVG Version: 6.00 Build 0)  -->

<svg
   xmlns:dc="http://purl.org/dc/elements/1.1/"
   xmlns:cc="http://creativecommons.org/ns#"
   xmlns:rdf="http://www.w3.org/1999/02/22-rdf-syntax-ns#"
   xmlns:svg="http://www.w3.org/2000/svg"
   xmlns="http://www.w3.org/2000/svg"
   xmlns:sodipodi="http://sodipodi.sourceforge.net/DTD/sodipodi-0.dtd"
   xmlns:inkscape="http://www.inkscape.org/namespaces/inkscape"
   version="1.1"
   id="Capa_1"
   x="0px"
   y="0px"
   width="512px"
   height="512px"
   viewBox="0 0 611.997 611.998"
   style="enable-background:new 0 0 611.997 611.998;"
   xml:space="preserve"
   inkscape:version="0.48.4 r9939"
   sodipodi:docname="search_bar_icon.svg"><metadata
     id="metadata41"><rdf:RDF><cc:Work
         rdf:about=""><dc:format>image/svg+xml</dc:format><dc:type
           rdf:resource="http://purl.org/dc/dcmitype/StillImage" /><dc:title></dc:title></cc:Work></rdf:RDF></metadata><defs
     id="defs39"><clipPath
       clipPathUnits="userSpaceOnUse"
       id="clipPath1122"><path
         inkscape:connector-curvature="0"
         d="m 2898.95,4354.4 492,0 0,465.602 -492,0 0,-465.602 z"
         id="path1124" /></clipPath><clipPath
       clipPathUnits="userSpaceOnUse"
       id="clipPath1014"><path
         inkscape:connector-curvature="0"
         d="m 1223.53,6150.62 633.598,0 0,410.398 -633.598,0 0,-410.398 z"
         id="path1016" /></clipPath><clipPath
       clipPathUnits="userSpaceOnUse"
       id="clipPath726"><path
         inkscape:connector-curvature="0"
         d="m 1120.54,6833.37 448.801,0 0,304.801 -448.801,0 0,-304.801 z"
         id="path728" /></clipPath></defs><sodipodi:namedview
     pagecolor="#ffffff"
     bordercolor="#666666"
     borderopacity="1"
     objecttolerance="10"
     gridtolerance="10"
     guidetolerance="10"
     inkscape:pageopacity="0"
     inkscape:pageshadow="2"
     inkscape:window-width="1920"
     inkscape:window-height="1025"
     id="namedview37"
     showgrid="false"
     inkscape:zoom="1.050338"
     inkscape:cx="251.82972"
     inkscape:cy="294.42083"
     inkscape:window-x="0"
     inkscape:window-y="30"
     inkscape:window-maximized="1"
     inkscape:current-layer="Capa_1" /><g
     id="g3"
     transform="matrix(-0.35855528,0.35502686,0.35502686,0.35855528,305.35808,82.139666)"
     style="fill:#0069ff;fill-opacity:1"><path
       d="M 601.444,535.668 433.671,368.273 c 1.504,-2.26 2.639,-6.032 3.765,-10.931 17.719,-29.784 28.682,-62.206 32.052,-96.518 0.772,-7.915 1.126,-16.215 1.126,-24.129 0,-26.012 -4.343,-52.088 -13.19,-77.666 -11.51,-33.243 -30.098,-62.648 -55.426,-88.226 -90.422,-91.306 -242.656,-91.097 -332.909,0 -30.018,30.307 -50.391,65.633 -61.08,105.945 -10.802,40.755 -10.553,80.682 0,121.026 10.561,40.344 30.652,75.67 61.08,105.944 45.355,45.131 104.811,68.617 166.269,68.617 47.125,0 89.964,-13.625 129.688,-38.455 l 6.033,-3.772 168.529,168.152 c 6.418,6.403 13.199,10.184 19.609,10.932 1.504,0.378 2.638,0.45 3.764,0.378 4.537,-0.298 8.695,-1.464 12.065,-3.395 4.552,-2.598 9.427,-6.41 14.711,-11.687 l 7.536,-7.545 c 5.276,-5.276 9.089,-10.158 11.688,-14.703 1.93,-3.37 3.016,-7.914 3.016,-13.577 v -3.016 c 0,-6.409 -3.949,-13.383 -10.553,-19.979 z M 422.354,287.214 c -8.848,33.129 -25.634,62.206 -50.52,87.091 -36.194,36.194 -84.832,56.552 -136.478,56.552 -50.897,0 -99.221,-20.687 -136.863,-56.552 -73.957,-70.458 -73.651,-202.189 0,-273.34 37.2,-35.929 85.588,-56.93 136.863,-56.93 53.914,0 98.892,19.111 136.478,56.93 24.62,24.773 41.849,53.536 50.52,86.714 8.67,33.178 8.872,66.309 0,99.535 z"
       id="path5"
       inkscape:connector-curvature="0"
       style="fill:#0069ff;fill-opacity:1" /></g><g
     id="g7" /><g
     id="g9" /><g
     id="g11" /><g
     id="g13" /><g
     id="g15" /><g
     id="g17" /><g
     id="g19" /><g
     id="g21" /><g
     id="g23" /><g
     id="g25" /><g
     id="g27" /><g
     id="g29" /><g
     id="g31" /><g
     id="g33" /><g
     id="g35" /><path
     sodipodi:type="arc"
     style="fill:none;stroke:#0069ff;stroke-width:2.99999998000000012;stroke-linecap:butt;stroke-linejoin:round;stroke-opacity:1;stroke-miterlimit:4;stroke-dasharray:none;stroke-dashoffset:0"
     id="path3020"
     sodipodi:cx="249.49153"
     sodipodi:cy="256"
     sodipodi:rx="201.76271"
     sodipodi:ry="201.76271"
     d="m 451.25424,256 a 201.76271,201.76271 0 1 1 -403.525419,0 201.76271,201.76271 0 1 1 403.525419,0 z"
     transform="matrix(1.1953086,0,0,1.1953086,3.5442101,-2.2760459)" /></svg>